# xmcd
#
# Track frame offsets: 
#        150
#        18907
#        44451
#        64467
#        80858
#        97197
#        121414
#        146452
#        167344
#        185668
#
# Disc length: 2661 seconds
#
# Revision: 1
# Processed by: cddbd v1.5.2PL0 Copyright (c) Steve Scherf et al.
# Submitted via: ExactAudioCopy v0.95b4
#
DISCID=8d0a630a
DTITLE=Eli Goulart e Banda do Mato - Bicho do Mato
DYEAR=1900
DGENRE=Jazz
TTITLE0=Vivendo e aprendendo a viver
TTITLE1=Destino
TTITLE2=Bicho Do Mato
TTITLE3=Espelho
TTITLE4=A espera do Criador
TTITLE5=Palavra
TTITLE6=Eu so Eu
TTITLE7=Tete a Tete
TTITLE8=Meu Samba
TTITLE9=Toque
EXTD=
EXTT0=
EXTT1=
EXTT2=
EXTT3=
EXTT4=
EXTT5=
EXTT6=
EXTT7=
EXTT8=
EXTT9=
PLAYORDER=
